# xmcd
#
# Track frame offsets:
# 150
# 15325
# 31155
# 47497
# 60075
# 75395
# 89937
# 106750
# 122427
# 137255
# 150580
# 162900
# 181097
# 196800
# 213872
# 232360
# 248602
# 263645
# 281052
# 295992
#
# Disc length: 4129 seconds
#
#
# Revision: 2
# Processed by: cddbd v1.5.1PL2 Copyright (c) Steve Scherf et al.
# Submitted via: FreeRIP 2.942 
#
DISCID=f9101f14
DTITLE=Chitãozinho and Xororó - Bailão Do Chitão and Xororó
DYEAR=1900
DGENRE=Sertanejo
TTITLE0=Chitãozinho and Xororó - Pura Emoção
TTITLE1=Chitãozinho and Xororó - Saudade Dela
TTITLE2=Chitãozinho and Xororó - Vou Tomá Um Pingão
TTITLE3=Chitãozinho and Xororó - Na Aba Do Meu Chapéu
TTITLE4=Chitãozinho and Xororó - Bailão De Peão
TTITLE5=Chitãozinho and Xororó - Vá Pro Inferno Com Seu Amor
TTITLE6=Chitãozinho and Xororó - Ela Não Vai Mais Chorar
TTITLE7=Chitãozinho and Xororó - Deixei De Ser Cowboy Por Ela
TTITLE8=Chitãozinho and Xororó - Loira Gelada
TTITLE9=Chitãozinho and Xororó - Saudade De Minha Terra
TTITLE10=Chitãozinho and Xororó - Sorriso Mudo
TTITLE11=Chitãozinho and Xororó - Peão De Rodeio
TTITLE12=Chitãozinho and Xororó - É Disso Que O Velho Gosta
TTITLE13=Chitãozinho and Xororó - Cara A Cara, Frente A Frente
TTITLE14=Chitãozinho and Xororó - Núvem De Lágrimas
TTITLE15=Chitãozinho and Xororó - Doce Pecado
TTITLE16=Chitãozinho and Xororó - Pode Ser Pra Valer
TTITLE17=Chitãozinho and Xororó - Cowboy Do Asfalto
TTITLE18=Chitãozinho and Xororó - Coração De Fora
TTITLE19=Chitãozinho and Xororó - Nascemos Pra Cantar
EXTD=
EXTT0=
EXTT1=
EXTT2=
EXTT3=
EXTT4=
EXTT5=
EXTT6=
EXTT7=
EXTT8=
EXTT9=
EXTT10=
EXTT11=
EXTT12=
EXTT13=
EXTT14=
EXTT15=
EXTT16=
EXTT17=
EXTT18=
EXTT19=
PLAYORDER=
